<svg id="icon" xmlns="http://www.w3.org/2000/svg" viewBox="0 0 512 512"><polygon points="488.431 267.407 256.001 432.263 23.571 267.407 23.571 323.575 256.001 488.431 256.001 488.431 256.001 488.431 256.001 488.431 256.001 488.431 488.431 323.575 488.431 267.407" style="fill:#c99"/><polygon points="256.001 432.263 488.431 267.407 256.001 110.99 256.001 110.99 256.001 110.99 256.001 110.99 256.001 110.99 23.571 267.407 256.001 432.263 256.001 432.263 256.001 432.263 256.001 432.263 256.001 432.263" style="fill:#cfe29a"/><path d="M256,383.314l158.38-112.335L256,164.394h0L107.937,264.036a8.593,8.593,0,0,0-.174,14.138L256,383.314Z" style="fill:#9caa63"/><polygon points="488.431 323.575 488.431 267.407 256.001 432.263 256.001 488.431 488.431 323.575" style="fill:#a56767"/><polygon points="488.431 267.407 256.001 110.99 256.001 432.263 488.431 267.407" style="fill:#9caa63"/><polygon points="367.874 133.577 256.001 133.577 144.127 133.577 144.127 273.566 256.001 352.914 256.001 352.914 256.001 352.914 256.001 352.914 256.001 352.914 367.874 273.566 367.874 133.577" style="fill:#fff"/><polygon points="144.127 133.577 144.127 185.812 309.476 295.384 309.476 188.152 188.914 133.577 144.127 133.577" style="fill:#ccc"/><path d="M177.362,297.139V262.424A15.531,15.531,0,0,1,201.794,249.7a35.581,35.581,0,0,1,15.188,29.157l-.23,46.222Z" style="fill:#53737f"/><polygon points="367.874 273.566 367.874 133.577 256.001 133.577 256.001 352.914 367.874 273.566" style="fill:#ccc"/><polygon points="333.282 258.165 333.282 223.29 299.722 245.53 299.722 281.968 333.282 258.165" style="fill:#53737f"/><polygon points="256.001 236.19 407.416 135.851 256.001 23.571 256.001 23.571 256.001 23.571 256.001 23.571 256.001 23.571 104.585 135.851 256.001 236.19 256.001 236.19 256.001 236.19 256.001 236.19 256.001 236.19" style="fill:#ff7b69"/><polygon points="407.416 135.851 256.001 23.571 256.001 236.19 407.416 135.851" style="fill:#d85656"/><path d="M20.2,328.322,252.633,493.177A6.189,6.189,0,0,0,256,494.25a6.121,6.121,0,0,0,3.3-1.034c.012.035,232.468-164.9,232.5-164.894a5.821,5.821,0,0,0,2.452-4.748V267.407a5.849,5.849,0,0,0-2.285-4.611c-.011-.44-92.109-61.729-92.231-62.1-6.487-4.083-12.764,5.167-6.5,9.658l84.957,57.175L256,425.126,33.809,267.533l86.949-58.513c6.215-4.386.034-13.805-6.5-9.657L20.32,262.578a5.9,5.9,0,0,0-2.28,3.047,5.582,5.582,0,0,0-.29,1.782v56.167A5.821,5.821,0,0,0,20.2,328.322ZM261.821,435.27l220.789-156.6v41.9l-220.789,156.6ZM29.39,278.671l220.79,156.6v41.9L29.39,320.568Z" style="fill:#333"/><path d="M213.464,329.881l39.169,27.781a5.912,5.912,0,0,0,4.415.967,6.4,6.4,0,0,0,2.32-.967l111.874-79.349a5.821,5.821,0,0,0,2.453-4.748V186.8a5.821,5.821,0,1,0-11.641,0v83.759L261.821,341.65V262.685a5.821,5.821,0,0,0-11.641,0V341.65L222.8,322.232V278.855a41.437,41.437,0,0,0-17.674-33.928c-13.835-9.937-33.8.459-33.587,17.5v23.45l-21.595-15.317V188.734c-.155-7.6-11.443-7.733-11.64,0v84.831a5.823,5.823,0,0,0,2.452,4.748l33.235,23.573a5.855,5.855,0,0,0,9.1-3.925,7.152,7.152,0,0,0,.083-.822V262.425c-.287-7.617,9.2-12.564,15.277-7.957a29.781,29.781,0,0,1,12.7,24.387v44.976A5.82,5.82,0,0,0,213.464,329.881Z" style="fill:#333"/><path d="M299.722,287.789a5.821,5.821,0,0,0,3.368-1.073l33.56-23.8a5.818,5.818,0,0,0,2.453-4.747V223.29a5.861,5.861,0,0,0-9.036-4.851l-33.56,22.24a5.816,5.816,0,0,0-2.605,4.851v36.439A5.853,5.853,0,0,0,299.722,287.789Zm5.82-39.135,21.92-14.525v21.029l-21.92,15.547Z" style="fill:#333"/><path d="M413.234,136.005a5.818,5.818,0,0,0-2.352-4.828L259.468,18.9a6.33,6.33,0,0,0-2.054-.952,5.859,5.859,0,0,0-4.88.952L101.118,131.177a5.862,5.862,0,0,0,.251,9.526L252.785,241.041a5.82,5.82,0,0,0,6.431,0L410.631,140.7A5.823,5.823,0,0,0,413.234,136.005ZM256,229.207,114.718,135.584,250.18,35.132V197.639a5.821,5.821,0,0,0,11.641,0V35.132L397.282,135.584Z" style="fill:#333"/></svg>